<svg width="31" height="30" viewBox="0 0 31 30" fill="none" xmlns="http://www.w3.org/2000/svg">
<path d="M8.525 20.4818C9.14163 20.4818 9.733 20.2562 10.169 19.8547C10.605 19.4532 10.85 18.9086 10.85 18.3408C10.8576 18.2696 10.8576 18.1979 10.85 18.1267L15.1745 14.1443H15.8875L18.383 16.4424V16.5566C18.383 17.1244 18.628 17.669 19.064 18.0705C19.5 18.472 20.0914 18.6976 20.708 18.6976C21.3246 18.6976 21.916 18.472 22.352 18.0705C22.788 17.669 23.033 17.1244 23.033 16.5566V16.4424L28.675 11.204C29.1348 11.204 29.5844 11.0784 29.9667 10.8431C30.349 10.6079 30.647 10.2735 30.823 9.88228C30.999 9.49105 31.045 9.06056 30.9553 8.64524C30.8656 8.22992 30.6442 7.84842 30.319 7.54899C29.9939 7.24956 29.5796 7.04565 29.1286 6.96304C28.6776 6.88042 28.2101 6.92282 27.7853 7.08487C27.3604 7.24692 26.9973 7.52135 26.7418 7.87344C26.4864 8.22553 26.35 8.63948 26.35 9.06294C26.3424 9.13414 26.3424 9.20584 26.35 9.27704L20.7545 14.4298H20.5065L17.825 11.9177C17.825 11.3498 17.58 10.8052 17.144 10.4037C16.708 10.0022 16.1166 9.77662 15.5 9.77662C14.8834 9.77662 14.292 10.0022 13.856 10.4037C13.42 10.8052 13.175 11.3498 13.175 11.9177L8.525 16.1997C7.90837 16.1997 7.317 16.4253 6.88098 16.8268C6.44495 17.2284 6.2 17.7729 6.2 18.3408C6.2 18.9086 6.44495 19.4532 6.88098 19.8547C7.317 20.2562 7.90837 20.4818 8.525 20.4818ZM29.45 26.1913H3.1V1.92614C3.1 1.54758 2.9367 1.18453 2.64602 0.916843C2.35533 0.649161 1.96109 0.498779 1.55 0.498779C1.13891 0.498779 0.744666 0.649161 0.453984 0.916843C0.163303 1.18453 0 1.54758 0 1.92614V27.6186C0 27.9972 0.163303 28.3602 0.453984 28.6279C0.744666 28.8956 1.13891 29.046 1.55 29.046H29.45C29.8611 29.046 30.2553 28.8956 30.546 28.6279C30.8367 28.3602 31 27.9972 31 27.6186C31 27.2401 30.8367 26.877 30.546 26.6093C30.2553 26.3416 29.8611 26.1913 29.45 26.1913Z" fill="#ECE6EE"/>
</svg>
