<svg width="31" height="30" viewBox="0 0 31 30" fill="none" xmlns="http://www.w3.org/2000/svg">
<path d="M19.716 10.0148L13.0665 16.3571L10.509 13.9234C10.3701 13.769 10.1991 13.6436 10.0068 13.5551C9.81446 13.4666 9.605 13.4168 9.39154 13.409C9.17807 13.4011 8.96521 13.4353 8.7663 13.5095C8.5674 13.5836 8.38675 13.6961 8.2357 13.8399C8.08464 13.9836 7.96644 14.1555 7.88852 14.3448C7.81059 14.534 7.77462 14.7366 7.78287 14.9397C7.79111 15.1429 7.84339 15.3422 7.93643 15.5252C8.02947 15.7081 8.16125 15.8709 8.32351 16.0031L11.966 19.4839C12.1108 19.6206 12.2826 19.7288 12.4714 19.8022C12.6603 19.8756 12.8625 19.9128 13.0665 19.9117C13.4731 19.91 13.8628 19.7564 14.1515 19.4839L21.9015 12.1092C22.0468 11.9721 22.1621 11.809 22.2408 11.6293C22.3195 11.4495 22.36 11.2567 22.36 11.062C22.36 10.8673 22.3195 10.6745 22.2408 10.4948C22.1621 10.3151 22.0468 10.1519 21.9015 10.0148C21.6111 9.74012 21.2182 9.58593 20.8088 9.58593C20.3993 9.58593 20.0064 9.74012 19.716 10.0148ZM15.5 0C12.4344 0 9.43763 0.865036 6.88867 2.48572C4.33971 4.1064 2.35303 6.40994 1.17987 9.10504C0.0067159 11.8001 -0.300236 14.7657 0.297835 17.6268C0.895906 20.4879 2.37214 23.116 4.53985 25.1788C6.70756 27.2415 9.4694 28.6462 12.4761 29.2154C15.4828 29.7845 18.5993 29.4924 21.4316 28.376C24.2639 27.2597 26.6846 25.3692 28.3878 22.9437C30.0909 20.5182 31 17.6665 31 14.7494C31 12.8125 30.5991 10.8945 29.8201 9.10504C29.0412 7.31556 27.8995 5.6896 26.4602 4.31999C25.0208 2.95039 23.3121 1.86396 21.4316 1.12273C19.5511 0.381504 17.5355 0 15.5 0ZM15.5 26.5489C13.0475 26.5489 10.6501 25.8569 8.61093 24.5603C6.57176 23.2638 4.98243 21.4209 4.0439 19.2649C3.10537 17.1088 2.85981 14.7363 3.33827 12.4474C3.81673 10.1585 4.99771 8.05606 6.73188 6.40587C8.46605 4.75568 10.6755 3.63189 13.0809 3.1766C15.4862 2.72131 17.9795 2.95498 20.2453 3.84806C22.5111 4.74114 24.4477 6.25351 25.8102 8.19393C27.1728 10.1343 27.9 12.4157 27.9 14.7494C27.9 17.8788 26.5936 20.8801 24.2681 23.0929C21.9427 25.3057 18.7887 26.5489 15.5 26.5489Z" fill="#ECE6EE"/>
</svg>
