<svg width="298" height="315" viewBox="0 0 298 315" fill="none" xmlns="http://www.w3.org/2000/svg">
<ellipse cx="88.0588" cy="156.162" rx="87.0588" ry="87.0588" transform="rotate(-165 88.0588 156.162)" fill="url(#paint0_linear_8_377)" fill-opacity="0.9"/>
<path d="M59.3978 163.15C58.5458 163.15 57.7898 162.958 57.1298 162.574C56.4698 162.178 55.9478 161.632 55.5638 160.936C55.1918 160.24 55.0058 159.418 55.0058 158.47C55.0058 157.534 55.1918 156.718 55.5638 156.022C55.9358 155.314 56.4518 154.768 57.1118 154.384C57.7838 153.988 58.5578 153.79 59.4338 153.79C60.2978 153.79 61.0418 153.988 61.6658 154.384C62.3018 154.768 62.7878 155.278 63.1238 155.914C63.4598 156.55 63.6278 157.234 63.6278 157.966C63.6278 158.098 63.6218 158.23 63.6098 158.362C63.6098 158.494 63.6098 158.644 63.6098 158.812H56.4998C56.5358 159.496 56.6918 160.066 56.9678 160.522C57.2558 160.966 57.6098 161.302 58.0298 161.53C58.4618 161.758 58.9178 161.872 59.3978 161.872C60.0218 161.872 60.5438 161.728 60.9638 161.44C61.3838 161.152 61.6898 160.762 61.8818 160.27H63.3758C63.1358 161.098 62.6738 161.788 61.9898 162.34C61.3178 162.88 60.4538 163.15 59.3978 163.15ZM59.3978 155.068C58.6778 155.068 58.0358 155.29 57.4718 155.734C56.9198 156.166 56.6018 156.802 56.5178 157.642H62.1338C62.0978 156.838 61.8218 156.208 61.3058 155.752C60.7898 155.296 60.1538 155.068 59.3978 155.068ZM65.6319 162.934V154.006H66.9999L67.1079 155.302C67.3959 154.822 67.7799 154.45 68.2599 154.186C68.7399 153.922 69.2799 153.79 69.8799 153.79C70.5879 153.79 71.1939 153.934 71.6979 154.222C72.2139 154.51 72.6099 154.948 72.8859 155.536C73.1979 154.996 73.6239 154.57 74.1639 154.258C74.7159 153.946 75.3099 153.79 75.9459 153.79C77.0139 153.79 77.8659 154.114 78.5019 154.762C79.1379 155.398 79.4559 156.382 79.4559 157.714V162.934H77.9619V157.876C77.9619 156.952 77.7759 156.256 77.4039 155.788C77.0319 155.32 76.4979 155.086 75.8019 155.086C75.0819 155.086 74.4819 155.368 74.0019 155.932C73.5339 156.484 73.2999 157.276 73.2999 158.308V162.934H71.7879V157.876C71.7879 156.952 71.6019 156.256 71.2299 155.788C70.8579 155.32 70.3239 155.086 69.6279 155.086C68.9199 155.086 68.3259 155.368 67.8459 155.932C67.3779 156.484 67.1439 157.276 67.1439 158.308V162.934H65.6319ZM81.7335 166.894V154.006H83.1015L83.2455 155.482C83.5335 155.05 83.9415 154.66 84.4695 154.312C85.0095 153.964 85.6935 153.79 86.5215 153.79C87.4095 153.79 88.1835 153.994 88.8435 154.402C89.5035 154.81 90.0135 155.368 90.3735 156.076C90.7455 156.784 90.9315 157.588 90.9315 158.488C90.9315 159.388 90.7455 160.192 90.3735 160.9C90.0135 161.596 89.4975 162.148 88.8255 162.556C88.1655 162.952 87.3915 163.15 86.5035 163.15C85.7715 163.15 85.1175 163 84.5415 162.7C83.9775 162.4 83.5455 161.98 83.2455 161.44V166.894H81.7335ZM86.3415 161.836C86.9415 161.836 87.4695 161.698 87.9255 161.422C88.3815 161.134 88.7415 160.738 89.0055 160.234C89.2695 159.73 89.4015 159.142 89.4015 158.47C89.4015 157.798 89.2695 157.21 89.0055 156.706C88.7415 156.202 88.3815 155.812 87.9255 155.536C87.4695 155.248 86.9415 155.104 86.3415 155.104C85.7415 155.104 85.2135 155.248 84.7575 155.536C84.3015 155.812 83.9415 156.202 83.6775 156.706C83.4135 157.21 83.2815 157.798 83.2815 158.47C83.2815 159.142 83.4135 159.73 83.6775 160.234C83.9415 160.738 84.3015 161.134 84.7575 161.422C85.2135 161.698 85.7415 161.836 86.3415 161.836ZM96.0062 163.15C95.2622 163.15 94.6442 163.024 94.1522 162.772C93.6602 162.52 93.2942 162.184 93.0542 161.764C92.8142 161.344 92.6942 160.888 92.6942 160.396C92.6942 159.484 93.0422 158.782 93.7382 158.29C94.4342 157.798 95.3822 157.552 96.5822 157.552H98.9942V157.444C98.9942 156.664 98.7902 156.076 98.3822 155.68C97.9742 155.272 97.4282 155.068 96.7442 155.068C96.1562 155.068 95.6462 155.218 95.2142 155.518C94.7942 155.806 94.5302 156.232 94.4222 156.796H92.8742C92.9342 156.148 93.1502 155.602 93.5222 155.158C93.9062 154.714 94.3802 154.378 94.9442 154.15C95.5082 153.91 96.1082 153.79 96.7442 153.79C97.9922 153.79 98.9282 154.126 99.5522 154.798C100.188 155.458 100.506 156.34 100.506 157.444V162.934H99.1562L99.0662 161.332C98.8142 161.836 98.4422 162.268 97.9502 162.628C97.4702 162.976 96.8222 163.15 96.0062 163.15ZM96.2402 161.872C96.8162 161.872 97.3082 161.722 97.7162 161.422C98.1362 161.122 98.4542 160.732 98.6702 160.252C98.8862 159.772 98.9942 159.268 98.9942 158.74V158.722H96.7082C95.8202 158.722 95.1902 158.878 94.8182 159.19C94.4582 159.49 94.2782 159.868 94.2782 160.324C94.2782 160.792 94.4462 161.17 94.7822 161.458C95.1302 161.734 95.6162 161.872 96.2402 161.872ZM106.056 162.934C105.24 162.934 104.598 162.736 104.13 162.34C103.662 161.944 103.428 161.23 103.428 160.198V155.284H101.88V154.006H103.428L103.626 151.864H104.94V154.006H107.568V155.284H104.94V160.198C104.94 160.762 105.054 161.146 105.282 161.35C105.51 161.542 105.912 161.638 106.488 161.638H107.424V162.934H106.056ZM109.489 162.934V154.006H111.001V162.934H109.489ZM109.831 153.268V152.134L113.611 149.848V151.162L109.831 153.268ZM116.45 163.15C115.706 163.15 115.088 163.024 114.596 162.772C114.104 162.52 113.738 162.184 113.498 161.764C113.258 161.344 113.138 160.888 113.138 160.396C113.138 159.484 113.486 158.782 114.182 158.29C114.878 157.798 115.826 157.552 117.026 157.552H119.438V157.444C119.438 156.664 119.234 156.076 118.826 155.68C118.418 155.272 117.872 155.068 117.188 155.068C116.6 155.068 116.09 155.218 115.658 155.518C115.238 155.806 114.974 156.232 114.866 156.796H113.318C113.378 156.148 113.594 155.602 113.966 155.158C114.35 154.714 114.824 154.378 115.388 154.15C115.952 153.91 116.552 153.79 117.188 153.79C118.436 153.79 119.372 154.126 119.996 154.798C120.632 155.458 120.95 156.34 120.95 157.444V162.934H119.6L119.51 161.332C119.258 161.836 118.886 162.268 118.394 162.628C117.914 162.976 117.266 163.15 116.45 163.15ZM116.684 161.872C117.26 161.872 117.752 161.722 118.16 161.422C118.58 161.122 118.898 160.732 119.114 160.252C119.33 159.772 119.438 159.268 119.438 158.74V158.722H117.152C116.264 158.722 115.634 158.878 115.262 159.19C114.902 159.49 114.722 159.868 114.722 160.324C114.722 160.792 114.89 161.17 115.226 161.458C115.574 161.734 116.06 161.872 116.684 161.872Z" fill="#B19BB9"/>
<circle cx="209.941" cy="227.441" r="87.0588" transform="rotate(105 209.941 227.441)" fill="url(#paint1_linear_8_377)" fill-opacity="0.9"/>
<path d="M167.174 234.429C166.322 234.429 165.566 234.237 164.906 233.853C164.246 233.457 163.724 232.911 163.34 232.215C162.968 231.519 162.782 230.697 162.782 229.749C162.782 228.813 162.968 227.997 163.34 227.301C163.712 226.593 164.228 226.047 164.888 225.663C165.56 225.267 166.334 225.069 167.21 225.069C168.074 225.069 168.818 225.267 169.442 225.663C170.078 226.047 170.564 226.557 170.9 227.193C171.236 227.829 171.404 228.513 171.404 229.245C171.404 229.377 171.398 229.509 171.386 229.641C171.386 229.773 171.386 229.923 171.386 230.091H164.276C164.312 230.775 164.468 231.345 164.744 231.801C165.032 232.245 165.386 232.581 165.806 232.809C166.238 233.037 166.694 233.151 167.174 233.151C167.798 233.151 168.32 233.007 168.74 232.719C169.16 232.431 169.466 232.041 169.658 231.549H171.152C170.912 232.377 170.45 233.067 169.766 233.619C169.094 234.159 168.23 234.429 167.174 234.429ZM167.174 226.347C166.454 226.347 165.812 226.569 165.248 227.013C164.696 227.445 164.378 228.081 164.294 228.921H169.91C169.874 228.117 169.598 227.487 169.082 227.031C168.566 226.575 167.93 226.347 167.174 226.347ZM172.086 234.213L175.182 229.749L172.086 225.285H173.724L176.226 228.975L178.746 225.285H180.366L177.27 229.749L180.366 234.213H178.746L176.226 230.523L173.724 234.213H172.086ZM181.951 238.173V225.285H183.319L183.463 226.761C183.751 226.329 184.159 225.939 184.687 225.591C185.227 225.243 185.911 225.069 186.739 225.069C187.627 225.069 188.401 225.273 189.061 225.681C189.721 226.089 190.231 226.647 190.591 227.355C190.963 228.063 191.149 228.867 191.149 229.767C191.149 230.667 190.963 231.471 190.591 232.179C190.231 232.875 189.715 233.427 189.043 233.835C188.383 234.231 187.609 234.429 186.721 234.429C185.989 234.429 185.335 234.279 184.759 233.979C184.195 233.679 183.763 233.259 183.463 232.719V238.173H181.951ZM186.559 233.115C187.159 233.115 187.687 232.977 188.143 232.701C188.599 232.413 188.959 232.017 189.223 231.513C189.487 231.009 189.619 230.421 189.619 229.749C189.619 229.077 189.487 228.489 189.223 227.985C188.959 227.481 188.599 227.091 188.143 226.815C187.687 226.527 187.159 226.383 186.559 226.383C185.959 226.383 185.431 226.527 184.975 226.815C184.519 227.091 184.159 227.481 183.895 227.985C183.631 228.489 183.499 229.077 183.499 229.749C183.499 230.421 183.631 231.009 183.895 231.513C184.159 232.017 184.519 232.413 184.975 232.701C185.431 232.977 185.959 233.115 186.559 233.115ZM197.267 234.429C196.415 234.429 195.659 234.237 194.999 233.853C194.339 233.457 193.817 232.911 193.433 232.215C193.061 231.519 192.875 230.697 192.875 229.749C192.875 228.813 193.061 227.997 193.433 227.301C193.805 226.593 194.321 226.047 194.981 225.663C195.653 225.267 196.427 225.069 197.303 225.069C198.167 225.069 198.911 225.267 199.535 225.663C200.171 226.047 200.657 226.557 200.993 227.193C201.329 227.829 201.497 228.513 201.497 229.245C201.497 229.377 201.491 229.509 201.479 229.641C201.479 229.773 201.479 229.923 201.479 230.091H194.369C194.405 230.775 194.561 231.345 194.837 231.801C195.125 232.245 195.479 232.581 195.899 232.809C196.331 233.037 196.787 233.151 197.267 233.151C197.891 233.151 198.413 233.007 198.833 232.719C199.253 232.431 199.559 232.041 199.751 231.549H201.245C201.005 232.377 200.543 233.067 199.859 233.619C199.187 234.159 198.323 234.429 197.267 234.429ZM197.267 226.347C196.547 226.347 195.905 226.569 195.341 227.013C194.789 227.445 194.471 228.081 194.387 228.921H200.003C199.967 228.117 199.691 227.487 199.175 227.031C198.659 226.575 198.023 226.347 197.267 226.347ZM203.502 234.213V225.285H204.87L204.996 226.995C205.272 226.407 205.692 225.939 206.256 225.591C206.82 225.243 207.516 225.069 208.344 225.069V226.653H207.93C207.402 226.653 206.916 226.749 206.472 226.941C206.028 227.121 205.674 227.433 205.41 227.877C205.146 228.321 205.014 228.933 205.014 229.713V234.213H203.502ZM210.959 223.305C210.659 223.305 210.407 223.209 210.203 223.017C210.011 222.813 209.915 222.561 209.915 222.261C209.915 221.973 210.011 221.733 210.203 221.541C210.407 221.349 210.659 221.253 210.959 221.253C211.247 221.253 211.493 221.349 211.697 221.541C211.901 221.733 212.003 221.973 212.003 222.261C212.003 222.561 211.901 222.813 211.697 223.017C211.493 223.209 211.247 223.305 210.959 223.305ZM210.203 234.213V225.285H211.715V234.213H210.203ZM218.361 234.429C217.509 234.429 216.753 234.237 216.093 233.853C215.433 233.457 214.911 232.911 214.527 232.215C214.155 231.519 213.969 230.697 213.969 229.749C213.969 228.813 214.155 227.997 214.527 227.301C214.899 226.593 215.415 226.047 216.075 225.663C216.747 225.267 217.521 225.069 218.397 225.069C219.261 225.069 220.005 225.267 220.629 225.663C221.265 226.047 221.751 226.557 222.087 227.193C222.423 227.829 222.591 228.513 222.591 229.245C222.591 229.377 222.585 229.509 222.573 229.641C222.573 229.773 222.573 229.923 222.573 230.091H215.463C215.499 230.775 215.655 231.345 215.931 231.801C216.219 232.245 216.573 232.581 216.993 232.809C217.425 233.037 217.881 233.151 218.361 233.151C218.985 233.151 219.507 233.007 219.927 232.719C220.347 232.431 220.653 232.041 220.845 231.549H222.339C222.099 232.377 221.637 233.067 220.953 233.619C220.281 234.159 219.417 234.429 218.361 234.429ZM218.361 226.347C217.641 226.347 216.999 226.569 216.435 227.013C215.883 227.445 215.565 228.081 215.481 228.921H221.097C221.061 228.117 220.785 227.487 220.269 227.031C219.753 226.575 219.117 226.347 218.361 226.347ZM224.595 234.213V225.285H225.963L226.053 226.887C226.341 226.323 226.755 225.879 227.295 225.555C227.835 225.231 228.447 225.069 229.131 225.069C230.187 225.069 231.027 225.393 231.651 226.041C232.287 226.677 232.605 227.661 232.605 228.993V234.213H231.093V229.155C231.093 227.295 230.325 226.365 228.789 226.365C228.021 226.365 227.379 226.647 226.863 227.211C226.359 227.763 226.107 228.555 226.107 229.587V234.213H224.595ZM239 234.429C238.148 234.429 237.38 234.237 236.696 233.853C236.024 233.457 235.49 232.911 235.094 232.215C234.71 231.507 234.518 230.685 234.518 229.749C234.518 228.813 234.71 227.997 235.094 227.301C235.49 226.593 236.024 226.047 236.696 225.663C237.38 225.267 238.148 225.069 239 225.069C240.056 225.069 240.944 225.345 241.664 225.897C242.396 226.449 242.858 227.187 243.05 228.111H241.502C241.382 227.559 241.088 227.133 240.62 226.833C240.152 226.521 239.606 226.365 238.982 226.365C238.478 226.365 238.004 226.491 237.56 226.743C237.116 226.995 236.756 227.373 236.48 227.877C236.204 228.381 236.066 229.005 236.066 229.749C236.066 230.493 236.204 231.117 236.48 231.621C236.756 232.125 237.116 232.509 237.56 232.773C238.004 233.025 238.478 233.151 238.982 233.151C239.606 233.151 240.152 233.001 240.62 232.701C241.088 232.389 241.382 231.951 241.502 231.387H243.05C242.87 232.287 242.414 233.019 241.682 233.583C240.95 234.147 240.056 234.429 239 234.429ZM246.08 223.305C245.78 223.305 245.528 223.209 245.324 223.017C245.132 222.813 245.036 222.561 245.036 222.261C245.036 221.973 245.132 221.733 245.324 221.541C245.528 221.349 245.78 221.253 246.08 221.253C246.368 221.253 246.614 221.349 246.818 221.541C247.022 221.733 247.124 221.973 247.124 222.261C247.124 222.561 247.022 222.813 246.818 223.017C246.614 223.209 246.368 223.305 246.08 223.305ZM245.324 234.213V225.285H246.836V234.213H245.324ZM252.438 234.429C251.694 234.429 251.076 234.303 250.584 234.051C250.092 233.799 249.726 233.463 249.486 233.043C249.246 232.623 249.126 232.167 249.126 231.675C249.126 230.763 249.474 230.061 250.17 229.569C250.866 229.077 251.814 228.831 253.014 228.831H255.426V228.723C255.426 227.943 255.222 227.355 254.814 226.959C254.406 226.551 253.86 226.347 253.176 226.347C252.588 226.347 252.078 226.497 251.646 226.797C251.226 227.085 250.962 227.511 250.854 228.075H249.306C249.366 227.427 249.582 226.881 249.954 226.437C250.338 225.993 250.812 225.657 251.376 225.429C251.94 225.189 252.54 225.069 253.176 225.069C254.424 225.069 255.36 225.405 255.984 226.077C256.62 226.737 256.938 227.619 256.938 228.723V234.213H255.588L255.498 232.611C255.246 233.115 254.874 233.547 254.382 233.907C253.902 234.255 253.254 234.429 252.438 234.429ZM252.672 233.151C253.248 233.151 253.74 233.001 254.148 232.701C254.568 232.401 254.886 232.011 255.102 231.531C255.318 231.051 255.426 230.547 255.426 230.019V230.001H253.14C252.252 230.001 251.622 230.157 251.25 230.469C250.89 230.769 250.71 231.147 250.71 231.603C250.71 232.071 250.878 232.449 251.214 232.737C251.562 233.013 252.048 233.151 252.672 233.151Z" fill="#B19BB9"/>
<circle cx="209.941" cy="87.0588" r="87.0588" fill="url(#paint2_linear_8_377)" fill-opacity="0.9"/>
<path d="M184.965 94.0469C184.113 94.0469 183.345 93.8549 182.661 93.4709C181.989 93.0749 181.455 92.5289 181.059 91.8329C180.675 91.1249 180.483 90.3029 180.483 89.3669C180.483 88.4309 180.675 87.6149 181.059 86.9189C181.455 86.2109 181.989 85.6649 182.661 85.2809C183.345 84.8849 184.113 84.6869 184.965 84.6869C186.021 84.6869 186.909 84.9629 187.629 85.5149C188.361 86.0669 188.823 86.8049 189.015 87.7289H187.467C187.347 87.1769 187.053 86.7509 186.585 86.4509C186.117 86.1389 185.571 85.9829 184.947 85.9829C184.443 85.9829 183.969 86.1089 183.525 86.3609C183.081 86.6129 182.721 86.9909 182.445 87.4949C182.169 87.9989 182.031 88.6229 182.031 89.3669C182.031 90.1109 182.169 90.7349 182.445 91.2389C182.721 91.7429 183.081 92.1269 183.525 92.3909C183.969 92.6429 184.443 92.7689 184.947 92.7689C185.571 92.7689 186.117 92.6189 186.585 92.3189C187.053 92.0069 187.347 91.5689 187.467 91.0049H189.015C188.835 91.9049 188.379 92.6369 187.647 93.2009C186.915 93.7649 186.021 94.0469 184.965 94.0469ZM194.097 94.0469C193.353 94.0469 192.735 93.9209 192.243 93.6689C191.751 93.4169 191.385 93.0809 191.145 92.6609C190.905 92.2409 190.785 91.7849 190.785 91.2929C190.785 90.3809 191.133 89.6789 191.829 89.1869C192.525 88.6949 193.473 88.4489 194.673 88.4489H197.085V88.3409C197.085 87.5609 196.881 86.9729 196.473 86.5769C196.065 86.1689 195.519 85.9649 194.835 85.9649C194.247 85.9649 193.737 86.1149 193.305 86.4149C192.885 86.7029 192.621 87.1289 192.513 87.6929H190.965C191.025 87.0449 191.241 86.4989 191.613 86.0549C191.997 85.6109 192.471 85.2749 193.035 85.0469C193.599 84.8069 194.199 84.6869 194.835 84.6869C196.083 84.6869 197.019 85.0229 197.643 85.6949C198.279 86.3549 198.597 87.2369 198.597 88.3409V93.8309H197.247L197.157 92.2289C196.905 92.7329 196.533 93.1649 196.041 93.5249C195.561 93.8729 194.913 94.0469 194.097 94.0469ZM194.331 92.7689C194.907 92.7689 195.399 92.6189 195.807 92.3189C196.227 92.0189 196.545 91.6289 196.761 91.1489C196.977 90.6689 197.085 90.1649 197.085 89.6369V89.6189H194.799C193.911 89.6189 193.281 89.7749 192.909 90.0869C192.549 90.3869 192.369 90.7649 192.369 91.2209C192.369 91.6889 192.537 92.0669 192.873 92.3549C193.221 92.6309 193.707 92.7689 194.331 92.7689ZM200.865 93.8309V80.8709H202.377V93.8309H200.865ZM205.773 82.9229C205.473 82.9229 205.221 82.8269 205.017 82.6349C204.825 82.4309 204.729 82.1789 204.729 81.8789C204.729 81.5909 204.825 81.3509 205.017 81.1589C205.221 80.9669 205.473 80.8709 205.773 80.8709C206.061 80.8709 206.307 80.9669 206.511 81.1589C206.715 81.3509 206.817 81.5909 206.817 81.8789C206.817 82.1789 206.715 82.4309 206.511 82.6349C206.307 82.8269 206.061 82.9229 205.773 82.9229ZM205.017 93.8309V84.9029H206.529V93.8309H205.017ZM213.212 94.0469C212.324 94.0469 211.544 93.8429 210.872 93.4349C210.212 93.0269 209.696 92.4689 209.324 91.7609C208.964 91.0529 208.784 90.2489 208.784 89.3489C208.784 88.4489 208.97 87.6509 209.342 86.9549C209.714 86.2469 210.23 85.6949 210.89 85.2989C211.55 84.8909 212.33 84.6869 213.23 84.6869C213.962 84.6869 214.61 84.8369 215.174 85.1369C215.738 85.4369 216.176 85.8569 216.488 86.3969V80.8709H218V93.8309H216.632L216.488 92.3549C216.2 92.7869 215.786 93.1769 215.246 93.5249C214.706 93.8729 214.028 94.0469 213.212 94.0469ZM213.374 92.7329C213.974 92.7329 214.502 92.5949 214.958 92.3189C215.426 92.0309 215.786 91.6349 216.038 91.1309C216.302 90.6269 216.434 90.0389 216.434 89.3669C216.434 88.6949 216.302 88.1069 216.038 87.6029C215.786 87.0989 215.426 86.7089 214.958 86.4329C214.502 86.1449 213.974 86.0009 213.374 86.0009C212.786 86.0009 212.258 86.1449 211.79 86.4329C211.334 86.7089 210.974 87.0989 210.71 87.6029C210.458 88.1069 210.332 88.6949 210.332 89.3669C210.332 90.0389 210.458 90.6269 210.71 91.1309C210.974 91.6349 211.334 92.0309 211.79 92.3189C212.258 92.5949 212.786 92.7329 213.374 92.7329ZM223.434 94.0469C222.69 94.0469 222.072 93.9209 221.58 93.6689C221.088 93.4169 220.722 93.0809 220.482 92.6609C220.242 92.2409 220.122 91.7849 220.122 91.2929C220.122 90.3809 220.47 89.6789 221.166 89.1869C221.862 88.6949 222.81 88.4489 224.01 88.4489H226.422V88.3409C226.422 87.5609 226.218 86.9729 225.81 86.5769C225.402 86.1689 224.856 85.9649 224.172 85.9649C223.584 85.9649 223.074 86.1149 222.642 86.4149C222.222 86.7029 221.958 87.1289 221.85 87.6929H220.302C220.362 87.0449 220.578 86.4989 220.95 86.0549C221.334 85.6109 221.808 85.2749 222.372 85.0469C222.936 84.8069 223.536 84.6869 224.172 84.6869C225.42 84.6869 226.356 85.0229 226.98 85.6949C227.616 86.3549 227.934 87.2369 227.934 88.3409V93.8309H226.584L226.494 92.2289C226.242 92.7329 225.87 93.1649 225.378 93.5249C224.898 93.8729 224.25 94.0469 223.434 94.0469ZM223.668 92.7689C224.244 92.7689 224.736 92.6189 225.144 92.3189C225.564 92.0189 225.882 91.6289 226.098 91.1489C226.314 90.6689 226.422 90.1649 226.422 89.6369V89.6189H224.136C223.248 89.6189 222.618 89.7749 222.246 90.0869C221.886 90.3869 221.706 90.7649 221.706 91.2209C221.706 91.6889 221.874 92.0669 222.21 92.3549C222.558 92.6309 223.044 92.7689 223.668 92.7689ZM234.253 94.0469C233.365 94.0469 232.585 93.8429 231.913 93.4349C231.253 93.0269 230.737 92.4689 230.365 91.7609C230.005 91.0529 229.825 90.2489 229.825 89.3489C229.825 88.4489 230.011 87.6509 230.383 86.9549C230.755 86.2469 231.271 85.6949 231.931 85.2989C232.591 84.8909 233.371 84.6869 234.271 84.6869C235.003 84.6869 235.651 84.8369 236.215 85.1369C236.779 85.4369 237.217 85.8569 237.529 86.3969V80.8709H239.041V93.8309H237.673L237.529 92.3549C237.241 92.7869 236.827 93.1769 236.287 93.5249C235.747 93.8729 235.069 94.0469 234.253 94.0469ZM234.415 92.7329C235.015 92.7329 235.543 92.5949 235.999 92.3189C236.467 92.0309 236.827 91.6349 237.079 91.1309C237.343 90.6269 237.475 90.0389 237.475 89.3669C237.475 88.6949 237.343 88.1069 237.079 87.6029C236.827 87.0989 236.467 86.7089 235.999 86.4329C235.543 86.1449 235.015 86.0009 234.415 86.0009C233.827 86.0009 233.299 86.1449 232.831 86.4329C232.375 86.7089 232.015 87.0989 231.751 87.6029C231.499 88.1069 231.373 88.6949 231.373 89.3669C231.373 90.0389 231.499 90.6269 231.751 91.1309C232.015 91.6349 232.375 92.0309 232.831 92.3189C233.299 92.5949 233.827 92.7329 234.415 92.7329Z" fill="#B19BB9"/>
<path fill-rule="evenodd" clip-rule="evenodd" d="M174.509 166.608C168.802 164.062 163.42 160.919 158.441 157.259C163.52 153.536 168.991 150.37 174.749 147.82C175.343 153.986 175.281 160.28 174.509 166.608Z" fill="url(#paint3_linear_8_377)"/>
<defs>
<linearGradient id="paint0_linear_8_377" x1="136.757" y1="81.8897" x2="9.09971" y2="208.717" gradientUnits="userSpaceOnUse">
<stop offset="0.108875" stop-color="#070009" stop-opacity="0"/>
<stop offset="1" stop-color="#700796" stop-opacity="0.9"/>
</linearGradient>
<linearGradient id="paint1_linear_8_377" x1="258.64" y1="153.169" x2="130.982" y2="279.996" gradientUnits="userSpaceOnUse">
<stop stop-color="#070009" stop-opacity="0"/>
<stop offset="1" stop-color="#700796" stop-opacity="0.9"/>
</linearGradient>
<linearGradient id="paint2_linear_8_377" x1="258.64" y1="12.7868" x2="130.982" y2="139.614" gradientUnits="userSpaceOnUse">
<stop offset="0.133224" stop-color="#070009" stop-opacity="0"/>
<stop offset="1" stop-color="#700796" stop-opacity="0.9"/>
</linearGradient>
<linearGradient id="paint3_linear_8_377" x1="159.886" y1="149.639" x2="170.386" y2="170.929" gradientUnits="userSpaceOnUse">
<stop stop-color="#63C7F2"/>
<stop offset="1" stop-color="#700796"/>
</linearGradient>
</defs>
</svg>
