<?xml version="1.0"?>
<svg width="298" height="315" xmlns="http://www.w3.org/2000/svg" xmlns:svg="http://www.w3.org/2000/svg" version="1.1">
 <metadata id="metadata915">image/svg+xml</metadata>
 <defs id="defs909">
  <linearGradient id="paint0_linear_8_377" x1="0.78" x2="0.05" y1="0.07" y2="0.8">
   <stop id="stop889" offset="0.11" stop-color="#070009" stop-opacity="0"/>
   <stop id="stop891" offset="1" stop-color="#700796" stop-opacity="0.9"/>
  </linearGradient>
  <linearGradient id="paint1_linear_8_377" x1="0.78" x2="0.05" y1="0.07" y2="0.8">
   <stop id="stop894" stop-color="#070009" stop-opacity="0"/>
   <stop id="stop896" offset="1" stop-color="#700796" stop-opacity="0.9"/>
  </linearGradient>
  <linearGradient id="paint2_linear_8_377" x1="0.78" x2="0.05" y1="0.07" y2="0.8">
   <stop id="stop899" offset="0.13" stop-color="#070009" stop-opacity="0"/>
   <stop id="stop901" offset="1" stop-color="#700796" stop-opacity="0.9"/>
  </linearGradient>
  <linearGradient id="paint3_linear_8_377" x1="0.09" x2="0.72" y1="0.1" y2="1.23">
   <stop id="stop904" stop-color="#63C7F2"/>
   <stop id="stop906" offset="1" stop-color="#700796"/>
  </linearGradient>
 </defs>
 <g class="layer">
  <title>Layer 1</title>
  <ellipse cx="88.06" cy="156.16" fill="url(#paint0_linear_8_377)" fill-opacity="0.9" id="ellipse875" rx="87.06" ry="87.06" transform="rotate(-165 88.0588 156.162)"/>
  <circle cx="209.94" cy="227.44" fill="url(#paint1_linear_8_377)" fill-opacity="0.9" id="circle879" r="87.06" transform="rotate(105 209.941 227.441)"/>
  <circle cx="209.94" cy="87.06" fill="url(#paint2_linear_8_377)" fill-opacity="0.9" id="circle883" r="87.06"/>
  <path clip-rule="evenodd" d="m174.51,166.61c-5.71,-2.55 -11.09,-5.69 -16.07,-9.35c5.08,-3.72 10.55,-6.89 16.31,-9.44c0.59,6.17 0.53,12.46 -0.24,18.79z" fill="url(#paint3_linear_8_377)" fill-rule="evenodd" id="path887"/>
  <text fill="#000000" font-family="sans-serif" font-size="Hug (129.8px)" font-style="normal" font-weight="700" id="text919" x="181.2" xml:space="preserve" y="113.69"/>
  <text fill="#b19bb9" font-family="sans-serif" font-size="Hug (129.8px)" font-style="normal" font-weight="700" id="text923" stroke-width="0.47" transform="matrix(0.902687 0 0 0.8025 32.6576 10.5839)" x="170.38" xml:space="preserve" y="102.35">
   <tspan id="tspan921" stroke-width="0.47" transform="matrix(1 0 0 1 184.993 80.6569)" x="170.38" y="102.35">quality</tspan>
  </text>
  <text fill="#b19bb9" font-family="sans-serif" font-size="Hug (129.8px)" font-style="normal" font-weight="700" id="text927" stroke-width="0.51" transform="matrix(1 0 0 1 0 0) matrix(0.821952 -0.010549 0.00949465 0.774375 12.6561 37.8798)" x="49.05" xml:space="preserve" y="160.63">
   <tspan id="tspan925" stroke-width="0.51" transform="matrix(1 0 0 1 11.4511 -9.91738)" x="49.01" y="160.58">empathy</tspan>
  </text>
  <text fill="#b19bb9" font-family="sans-serif" font-size="Hug (129.8px)" font-style="normal" font-weight="700" id="text931" stroke-width="0.46" transform="matrix(0.885607 0 0 0.918707 20.7888 18.1642)" x="167.94" xml:space="preserve" y="233.77">
   <tspan id="tspan929" stroke-width="0.46" transform="matrix(1 0 0 1 7.50776 -5.20328)" x="167.94" y="233.77">experience</tspan>
  </text>
 </g>
</svg>