<svg width="307" height="247" viewBox="0 0 307 247" fill="none" xmlns="http://www.w3.org/2000/svg">
<circle cx="75.8457" cy="121.846" r="74.8456" transform="rotate(-165 75.8457 121.846)" fill="url(#paint0_linear_689_873)" fill-opacity="0.9"/>
<path d="M62.2507 125.173C61.8607 125.173 61.5149 125.085 61.2133 124.908C60.9169 124.731 60.6855 124.484 60.5191 124.167C60.3527 123.85 60.2695 123.483 60.2695 123.067C60.2695 122.641 60.3527 122.264 60.5191 121.936C60.6855 121.609 60.9169 121.351 61.2133 121.164C61.5097 120.977 61.8555 120.883 62.2507 120.883C62.6563 120.883 63.0021 120.972 63.2881 121.148C63.5741 121.325 63.7925 121.567 63.9433 121.874C64.0941 122.181 64.1695 122.529 64.1695 122.919C64.1695 122.971 64.1669 123.028 64.1617 123.091C64.1617 123.153 64.1591 123.218 64.1539 123.286H61.0261V122.638H63.1165C63.1061 122.352 63.0203 122.131 62.8591 121.975C62.6979 121.814 62.4977 121.733 62.2585 121.733C62.0817 121.733 61.9205 121.78 61.7749 121.874C61.6345 121.962 61.5201 122.095 61.4317 122.272C61.3485 122.448 61.3069 122.672 61.3069 122.942V123.169C61.3069 123.403 61.3433 123.605 61.4161 123.777C61.4941 123.949 61.6033 124.081 61.7437 124.175C61.8841 124.268 62.0505 124.315 62.2429 124.315C62.4561 124.315 62.6173 124.281 62.7265 124.214C62.8357 124.141 62.9241 124.042 62.9917 123.917H64.0603C63.9875 124.151 63.8653 124.365 63.6937 124.557C63.5273 124.749 63.3219 124.9 63.0775 125.009C62.8331 125.119 62.5575 125.173 62.2507 125.173ZM65.0866 125.08V120.977H66.0148L66.0928 121.492C66.2176 121.31 66.384 121.164 66.592 121.055C66.8 120.94 67.0314 120.883 67.2862 120.883C67.4734 120.883 67.6424 120.909 67.7932 120.961C67.9492 121.008 68.0844 121.081 68.1988 121.18C68.3132 121.273 68.4068 121.393 68.4796 121.538C68.6304 121.33 68.8202 121.169 69.049 121.055C69.2778 120.94 69.5222 120.883 69.7822 120.883C70.1254 120.883 70.4062 120.948 70.6246 121.078C70.843 121.208 71.0068 121.395 71.116 121.64C71.2252 121.884 71.2798 122.181 71.2798 122.529V125.08H70.2346V122.63C70.2346 122.35 70.1722 122.136 70.0474 121.991C69.9226 121.845 69.7432 121.772 69.5092 121.772C69.3584 121.772 69.2206 121.809 69.0958 121.882C68.9762 121.954 68.88 122.061 68.8072 122.201C68.7396 122.342 68.7058 122.508 68.7058 122.701V125.08H67.6606V122.63C67.6606 122.35 67.5982 122.136 67.4734 121.991C67.3486 121.845 67.1666 121.772 66.9274 121.772C66.7818 121.772 66.6492 121.809 66.5296 121.882C66.41 121.954 66.3138 122.061 66.241 122.201C66.1734 122.342 66.1396 122.508 66.1396 122.701V125.08H65.0866ZM72.3687 126.796V120.977H73.3047L73.4217 121.515C73.4997 121.401 73.5959 121.297 73.7103 121.203C73.8247 121.104 73.9599 121.026 74.1159 120.969C74.2771 120.912 74.4591 120.883 74.6619 120.883C75.0415 120.883 75.3691 120.977 75.6447 121.164C75.9203 121.351 76.1335 121.609 76.2843 121.936C76.4351 122.259 76.5105 122.625 76.5105 123.036C76.5105 123.447 76.4299 123.813 76.2687 124.136C76.1075 124.458 75.8891 124.713 75.6135 124.9C75.3431 125.082 75.0363 125.173 74.6931 125.173C74.3967 125.173 74.1419 125.121 73.9287 125.017C73.7207 124.908 73.5517 124.76 73.4217 124.573V126.796H72.3687ZM74.4123 124.253C74.6099 124.253 74.7841 124.206 74.9349 124.112C75.0857 124.014 75.2053 123.873 75.2937 123.691C75.3873 123.504 75.4341 123.286 75.4341 123.036C75.4341 122.781 75.3873 122.563 75.2937 122.381C75.2053 122.194 75.0857 122.051 74.9349 121.952C74.7841 121.853 74.6099 121.804 74.4123 121.804C74.2147 121.804 74.0379 121.853 73.8819 121.952C73.7311 122.051 73.6115 122.194 73.5231 122.381C73.4399 122.563 73.3983 122.779 73.3983 123.028C73.3983 123.283 73.4399 123.501 73.5231 123.683C73.6115 123.865 73.7311 124.006 73.8819 124.105C74.0379 124.203 74.2147 124.253 74.4123 124.253ZM78.7673 125.173C78.4501 125.173 78.1875 125.119 77.9795 125.009C77.7715 124.895 77.6155 124.744 77.5115 124.557C77.4075 124.365 77.3555 124.157 77.3555 123.933C77.3555 123.683 77.4153 123.465 77.5349 123.278C77.6597 123.091 77.8443 122.945 78.0887 122.841C78.3383 122.737 78.6477 122.685 79.0169 122.685H79.9607C79.9607 122.467 79.9425 122.29 79.9061 122.155C79.8697 122.014 79.7969 121.91 79.6877 121.843C79.5837 121.775 79.4303 121.741 79.2275 121.741C79.0403 121.741 78.8869 121.78 78.7673 121.858C78.6477 121.931 78.5723 122.045 78.5411 122.201H77.5193C77.5453 121.931 77.6311 121.7 77.7767 121.507C77.9275 121.31 78.1277 121.156 78.3773 121.047C78.6269 120.938 78.9129 120.883 79.2353 120.883C79.6097 120.883 79.9295 120.946 80.1947 121.07C80.4651 121.19 80.6679 121.369 80.8031 121.609C80.9435 121.843 81.0137 122.129 81.0137 122.467V125.08H80.1323L80.0153 124.471C79.9581 124.575 79.8879 124.671 79.8047 124.76C79.7267 124.843 79.6357 124.916 79.5317 124.978C79.4277 125.041 79.3107 125.087 79.1807 125.119C79.0559 125.155 78.9181 125.173 78.7673 125.173ZM79.0169 124.362C79.1365 124.362 79.2483 124.336 79.3523 124.284C79.4563 124.232 79.5473 124.162 79.6253 124.073C79.7085 123.98 79.7735 123.873 79.8203 123.754C79.8723 123.634 79.9061 123.504 79.9217 123.364V123.332H79.1339C78.9779 123.332 78.8505 123.353 78.7517 123.395C78.6529 123.436 78.5801 123.496 78.5333 123.574C78.4917 123.652 78.4709 123.741 78.4709 123.839C78.4709 123.949 78.4917 124.042 78.5333 124.12C78.5801 124.198 78.6451 124.258 78.7283 124.3C78.8115 124.341 78.9077 124.362 79.0169 124.362ZM83.8829 125.08C83.6125 125.08 83.3733 125.038 83.1653 124.955C82.9573 124.866 82.7961 124.723 82.6817 124.526C82.5673 124.323 82.5101 124.047 82.5101 123.699V121.858H81.8003V120.977H82.5101L82.6271 119.83H83.5631V120.977H84.6239V121.858H83.5631V123.715C83.5631 123.891 83.6021 124.014 83.6801 124.081C83.7581 124.149 83.8907 124.183 84.0779 124.183H84.6395V125.08H83.8829ZM85.5845 125.08V120.977H86.6375V125.08H85.5845ZM85.5065 120.641L85.1243 120.08L86.6297 118.988L87.1055 119.666L85.5065 120.641ZM89.0277 125.173C88.7105 125.173 88.4479 125.119 88.2399 125.009C88.0319 124.895 87.8759 124.744 87.7719 124.557C87.6679 124.365 87.6159 124.157 87.6159 123.933C87.6159 123.683 87.6757 123.465 87.7953 123.278C87.9201 123.091 88.1047 122.945 88.3491 122.841C88.5987 122.737 88.9081 122.685 89.2773 122.685H90.2211C90.2211 122.467 90.2029 122.29 90.1665 122.155C90.1301 122.014 90.0573 121.91 89.9481 121.843C89.8441 121.775 89.6907 121.741 89.4879 121.741C89.3007 121.741 89.1473 121.78 89.0277 121.858C88.9081 121.931 88.8327 122.045 88.8015 122.201H87.7797C87.8057 121.931 87.8915 121.7 88.0371 121.507C88.1879 121.31 88.3881 121.156 88.6377 121.047C88.8873 120.938 89.1733 120.883 89.4957 120.883C89.8701 120.883 90.1899 120.946 90.4551 121.07C90.7255 121.19 90.9283 121.369 91.0635 121.609C91.2039 121.843 91.2741 122.129 91.2741 122.467V125.08H90.3927L90.2757 124.471C90.2185 124.575 90.1483 124.671 90.0651 124.76C89.9871 124.843 89.8961 124.916 89.7921 124.978C89.6881 125.041 89.5711 125.087 89.4411 125.119C89.3163 125.155 89.1785 125.173 89.0277 125.173ZM89.2773 124.362C89.3969 124.362 89.5087 124.336 89.6127 124.284C89.7167 124.232 89.8077 124.162 89.8857 124.073C89.9689 123.98 90.0339 123.873 90.0807 123.754C90.1327 123.634 90.1665 123.504 90.1821 123.364V123.332H89.3943C89.2383 123.332 89.1109 123.353 89.0121 123.395C88.9133 123.436 88.8405 123.496 88.7937 123.574C88.7521 123.652 88.7313 123.741 88.7313 123.839C88.7313 123.949 88.7521 124.042 88.7937 124.12C88.8405 124.198 88.9055 124.258 88.9887 124.3C89.0719 124.341 89.1681 124.362 89.2773 124.362Z" fill="#B19BB9"/>
<circle cx="231.846" cy="171.846" r="74.8456" transform="rotate(105 231.846 171.846)" fill="url(#paint1_linear_689_873)" fill-opacity="0.9"/>
<path d="M211.56 175.173C211.17 175.173 210.824 175.085 210.523 174.908C210.226 174.731 209.995 174.484 209.828 174.167C209.662 173.85 209.579 173.483 209.579 173.067C209.579 172.641 209.662 172.264 209.828 171.936C209.995 171.608 210.226 171.351 210.523 171.164C210.819 170.977 211.165 170.883 211.56 170.883C211.966 170.883 212.311 170.971 212.597 171.148C212.883 171.325 213.102 171.567 213.253 171.874C213.403 172.18 213.479 172.529 213.479 172.919C213.479 172.971 213.476 173.028 213.471 173.09C213.471 173.153 213.468 173.218 213.463 173.285H210.335V172.638H212.426C212.415 172.352 212.33 172.131 212.168 171.975C212.007 171.814 211.807 171.733 211.568 171.733C211.391 171.733 211.23 171.78 211.084 171.874C210.944 171.962 210.829 172.095 210.741 172.271C210.658 172.448 210.616 172.672 210.616 172.942V173.168C210.616 173.402 210.653 173.605 210.725 173.777C210.803 173.948 210.913 174.081 211.053 174.175C211.193 174.268 211.36 174.315 211.552 174.315C211.765 174.315 211.927 174.281 212.036 174.214C212.145 174.141 212.233 174.042 212.301 173.917H213.37C213.297 174.151 213.175 174.364 213.003 174.557C212.837 174.749 212.631 174.9 212.387 175.009C212.142 175.118 211.867 175.173 211.56 175.173ZM213.771 175.079L215.167 173.012L213.771 170.977H214.917L215.807 172.334L216.696 170.977H217.835L216.438 173.012L217.835 175.079H216.696L215.807 173.683L214.917 175.079H213.771ZM218.57 176.795V170.977H219.506L219.623 171.515C219.701 171.4 219.797 171.296 219.912 171.203C220.026 171.104 220.161 171.026 220.317 170.969C220.479 170.912 220.661 170.883 220.863 170.883C221.243 170.883 221.571 170.977 221.846 171.164C222.122 171.351 222.335 171.608 222.486 171.936C222.637 172.258 222.712 172.625 222.712 173.036C222.712 173.447 222.631 173.813 222.47 174.136C222.309 174.458 222.091 174.713 221.815 174.9C221.545 175.082 221.238 175.173 220.895 175.173C220.598 175.173 220.343 175.121 220.13 175.017C219.922 174.908 219.753 174.76 219.623 174.572V176.795H218.57ZM220.614 174.253C220.811 174.253 220.986 174.206 221.136 174.112C221.287 174.013 221.407 173.873 221.495 173.691C221.589 173.504 221.636 173.285 221.636 173.036C221.636 172.781 221.589 172.563 221.495 172.381C221.407 172.193 221.287 172.05 221.136 171.952C220.986 171.853 220.811 171.803 220.614 171.803C220.416 171.803 220.239 171.853 220.083 171.952C219.933 172.05 219.813 172.193 219.725 172.381C219.641 172.563 219.6 172.778 219.6 173.028C219.6 173.283 219.641 173.501 219.725 173.683C219.813 173.865 219.933 174.006 220.083 174.104C220.239 174.203 220.416 174.253 220.614 174.253ZM225.507 175.173C225.117 175.173 224.771 175.085 224.47 174.908C224.173 174.731 223.942 174.484 223.775 174.167C223.609 173.85 223.526 173.483 223.526 173.067C223.526 172.641 223.609 172.264 223.775 171.936C223.942 171.608 224.173 171.351 224.47 171.164C224.766 170.977 225.112 170.883 225.507 170.883C225.913 170.883 226.258 170.971 226.544 171.148C226.83 171.325 227.049 171.567 227.2 171.874C227.35 172.18 227.426 172.529 227.426 172.919C227.426 172.971 227.423 173.028 227.418 173.09C227.418 173.153 227.415 173.218 227.41 173.285H224.282V172.638H226.373C226.362 172.352 226.277 172.131 226.115 171.975C225.954 171.814 225.754 171.733 225.515 171.733C225.338 171.733 225.177 171.78 225.031 171.874C224.891 171.962 224.776 172.095 224.688 172.271C224.605 172.448 224.563 172.672 224.563 172.942V173.168C224.563 173.402 224.6 173.605 224.672 173.777C224.75 173.948 224.86 174.081 225 174.175C225.14 174.268 225.307 174.315 225.499 174.315C225.712 174.315 225.874 174.281 225.983 174.214C226.092 174.141 226.18 174.042 226.248 173.917H227.317C227.244 174.151 227.122 174.364 226.95 174.557C226.784 174.749 226.578 174.9 226.334 175.009C226.089 175.118 225.814 175.173 225.507 175.173ZM228.343 175.079V170.977H229.279L229.373 171.686C229.477 171.51 229.607 171.361 229.763 171.242C229.919 171.122 230.098 171.034 230.301 170.977C230.504 170.914 230.73 170.883 230.979 170.883V171.998H230.41C230.275 171.998 230.145 172.014 230.02 172.045C229.9 172.076 229.791 172.131 229.692 172.209C229.599 172.287 229.526 172.391 229.474 172.521C229.422 172.651 229.396 172.817 229.396 173.02V175.079H228.343ZM231.733 175.079V170.977H232.786V175.079H231.733ZM232.264 170.493C232.071 170.493 231.915 170.438 231.796 170.329C231.676 170.215 231.616 170.072 231.616 169.9C231.616 169.729 231.676 169.588 231.796 169.479C231.915 169.365 232.071 169.307 232.264 169.307C232.456 169.307 232.612 169.365 232.732 169.479C232.856 169.588 232.919 169.729 232.919 169.9C232.919 170.072 232.856 170.215 232.732 170.329C232.612 170.438 232.456 170.493 232.264 170.493ZM235.737 175.173C235.347 175.173 235.001 175.085 234.699 174.908C234.403 174.731 234.172 174.484 234.005 174.167C233.839 173.85 233.756 173.483 233.756 173.067C233.756 172.641 233.839 172.264 234.005 171.936C234.172 171.608 234.403 171.351 234.699 171.164C234.996 170.977 235.342 170.883 235.737 170.883C236.142 170.883 236.488 170.971 236.774 171.148C237.06 171.325 237.279 171.567 237.429 171.874C237.58 172.18 237.656 172.529 237.656 172.919C237.656 172.971 237.653 173.028 237.648 173.09C237.648 173.153 237.645 173.218 237.64 173.285H234.512V172.638H236.603C236.592 172.352 236.506 172.131 236.345 171.975C236.184 171.814 235.984 171.733 235.745 171.733C235.568 171.733 235.407 171.78 235.261 171.874C235.121 171.962 235.006 172.095 234.918 172.271C234.835 172.448 234.793 172.672 234.793 172.942V173.168C234.793 173.402 234.829 173.605 234.902 173.777C234.98 173.948 235.089 174.081 235.23 174.175C235.37 174.268 235.537 174.315 235.729 174.315C235.942 174.315 236.103 174.281 236.213 174.214C236.322 174.141 236.41 174.042 236.478 173.917H237.546C237.474 174.151 237.351 174.364 237.18 174.557C237.013 174.749 236.808 174.9 236.564 175.009C236.319 175.118 236.044 175.173 235.737 175.173ZM238.573 175.079V170.977H239.501L239.571 171.585C239.686 171.367 239.852 171.195 240.07 171.07C240.289 170.945 240.551 170.883 240.858 170.883C241.175 170.883 241.446 170.948 241.669 171.078C241.893 171.203 242.065 171.387 242.184 171.632C242.304 171.871 242.364 172.165 242.364 172.513V175.079H241.311V172.607C241.311 172.342 241.24 172.136 241.1 171.991C240.96 171.845 240.762 171.772 240.507 171.772C240.346 171.772 240.198 171.809 240.063 171.881C239.927 171.949 239.821 172.05 239.743 172.186C239.665 172.321 239.626 172.487 239.626 172.685V175.079H238.573ZM245.335 175.173C244.94 175.173 244.589 175.082 244.282 174.9C243.981 174.718 243.744 174.468 243.573 174.151C243.401 173.834 243.315 173.475 243.315 173.075C243.315 172.638 243.401 172.256 243.573 171.928C243.744 171.601 243.981 171.346 244.282 171.164C244.589 170.977 244.94 170.883 245.335 170.883C245.845 170.883 246.271 171.018 246.615 171.289C246.958 171.559 247.179 171.933 247.278 172.412H246.162C246.115 172.219 246.017 172.066 245.866 171.952C245.72 171.837 245.541 171.78 245.328 171.78C245.13 171.78 244.961 171.832 244.821 171.936C244.68 172.035 244.574 172.178 244.501 172.365C244.428 172.547 244.392 172.768 244.392 173.028C244.392 173.22 244.412 173.395 244.454 173.551C244.496 173.707 244.555 173.839 244.633 173.948C244.711 174.052 244.808 174.133 244.922 174.19C245.042 174.247 245.177 174.276 245.328 174.276C245.473 174.276 245.601 174.253 245.71 174.206C245.824 174.154 245.92 174.081 245.998 173.987C246.076 173.889 246.131 173.774 246.162 173.644H247.278C247.184 174.107 246.963 174.479 246.615 174.76C246.266 175.035 245.84 175.173 245.335 175.173ZM248.255 175.079V170.977H249.308V175.079H248.255ZM248.785 170.493C248.593 170.493 248.437 170.438 248.317 170.329C248.198 170.215 248.138 170.072 248.138 169.9C248.138 169.729 248.198 169.588 248.317 169.479C248.437 169.365 248.593 169.307 248.785 169.307C248.978 169.307 249.134 169.365 249.253 169.479C249.378 169.588 249.44 169.729 249.44 169.9C249.44 170.072 249.378 170.215 249.253 170.329C249.134 170.438 248.978 170.493 248.785 170.493ZM251.72 175.173C251.403 175.173 251.141 175.118 250.933 175.009C250.725 174.895 250.569 174.744 250.465 174.557C250.361 174.364 250.309 174.156 250.309 173.933C250.309 173.683 250.368 173.465 250.488 173.278C250.613 173.09 250.797 172.945 251.042 172.841C251.291 172.737 251.601 172.685 251.97 172.685H252.914C252.914 172.466 252.896 172.29 252.859 172.154C252.823 172.014 252.75 171.91 252.641 171.842C252.537 171.775 252.383 171.741 252.181 171.741C251.993 171.741 251.84 171.78 251.72 171.858C251.601 171.931 251.525 172.045 251.494 172.201H250.472C250.498 171.931 250.584 171.699 250.73 171.507C250.881 171.309 251.081 171.156 251.33 171.047C251.58 170.938 251.866 170.883 252.188 170.883C252.563 170.883 252.883 170.945 253.148 171.07C253.418 171.19 253.621 171.369 253.756 171.608C253.897 171.842 253.967 172.128 253.967 172.466V175.079H253.085L252.968 174.471C252.911 174.575 252.841 174.671 252.758 174.76C252.68 174.843 252.589 174.916 252.485 174.978C252.381 175.04 252.264 175.087 252.134 175.118C252.009 175.155 251.871 175.173 251.72 175.173ZM251.97 174.362C252.09 174.362 252.201 174.336 252.305 174.284C252.409 174.232 252.5 174.162 252.578 174.073C252.662 173.98 252.727 173.873 252.773 173.753C252.825 173.634 252.859 173.504 252.875 173.363V173.332H252.087C251.931 173.332 251.804 173.353 251.705 173.395C251.606 173.436 251.533 173.496 251.486 173.574C251.445 173.652 251.424 173.74 251.424 173.839C251.424 173.948 251.445 174.042 251.486 174.12C251.533 174.198 251.598 174.258 251.681 174.299C251.765 174.341 251.861 174.362 251.97 174.362Z" fill="#B19BB9"/>
<circle cx="166.846" cy="74.8456" r="74.8456" fill="url(#paint2_linear_689_873)" fill-opacity="0.9"/>
<path d="M155.005 78.1731C154.609 78.1731 154.258 78.0821 153.952 77.9001C153.65 77.7181 153.413 77.4685 153.242 77.1513C153.07 76.8341 152.984 76.4753 152.984 76.0749C152.984 75.6381 153.07 75.2559 153.242 74.9283C153.413 74.6007 153.65 74.3459 153.952 74.1639C154.258 73.9767 154.609 73.8831 155.005 73.8831C155.514 73.8831 155.941 74.0183 156.284 74.2887C156.627 74.5591 156.848 74.9335 156.947 75.4119H155.831C155.785 75.2195 155.686 75.0661 155.535 74.9517C155.389 74.8373 155.21 74.7801 154.997 74.7801C154.799 74.7801 154.63 74.8321 154.49 74.9361C154.349 75.0349 154.243 75.1779 154.17 75.3651C154.097 75.5471 154.061 75.7681 154.061 76.0281C154.061 76.2205 154.082 76.3947 154.123 76.5507C154.165 76.7067 154.225 76.8393 154.303 76.9485C154.381 77.0525 154.477 77.1331 154.591 77.1903C154.711 77.2475 154.846 77.2761 154.997 77.2761C155.142 77.2761 155.27 77.2527 155.379 77.2059C155.493 77.1539 155.59 77.0811 155.668 76.9875C155.746 76.8887 155.8 76.7743 155.831 76.6443H156.947C156.853 77.1071 156.632 77.4789 156.284 77.7597C155.935 78.0353 155.509 78.1731 155.005 78.1731ZM159.211 78.1731C158.894 78.1731 158.631 78.1185 158.423 78.0093C158.215 77.8949 158.059 77.7441 157.955 77.5569C157.851 77.3645 157.799 77.1565 157.799 76.9329C157.799 76.6833 157.859 76.4649 157.979 76.2777C158.103 76.0905 158.288 75.9449 158.532 75.8409C158.782 75.7369 159.091 75.6849 159.461 75.6849H160.404C160.404 75.4665 160.386 75.2897 160.35 75.1545C160.313 75.0141 160.241 74.9101 160.131 74.8425C160.027 74.7749 159.874 74.7411 159.671 74.7411C159.484 74.7411 159.331 74.7801 159.211 74.8581C159.091 74.9309 159.016 75.0453 158.985 75.2013H157.963C157.989 74.9309 158.075 74.6995 158.22 74.5071C158.371 74.3095 158.571 74.1561 158.821 74.0469C159.071 73.9377 159.357 73.8831 159.679 73.8831C160.053 73.8831 160.373 73.9455 160.638 74.0703C160.909 74.1899 161.112 74.3693 161.247 74.6085C161.387 74.8425 161.457 75.1285 161.457 75.4665V78.0795H160.576L160.459 77.4711C160.402 77.5751 160.332 77.6713 160.248 77.7597C160.17 77.8429 160.079 77.9157 159.975 77.9781C159.871 78.0405 159.754 78.0873 159.624 78.1185C159.5 78.1549 159.362 78.1731 159.211 78.1731ZM159.461 77.3619C159.58 77.3619 159.692 77.3359 159.796 77.2839C159.9 77.2319 159.991 77.1617 160.069 77.0733C160.152 76.9797 160.217 76.8731 160.264 76.7535C160.316 76.6339 160.35 76.5039 160.365 76.3635V76.3323H159.578C159.422 76.3323 159.294 76.3531 159.195 76.3947C159.097 76.4363 159.024 76.4961 158.977 76.5741C158.935 76.6521 158.915 76.7405 158.915 76.8393C158.915 76.9485 158.935 77.0421 158.977 77.1201C159.024 77.1981 159.089 77.2579 159.172 77.2995C159.255 77.3411 159.351 77.3619 159.461 77.3619ZM162.547 78.0795V72.4635H163.6V78.0795H162.547ZM164.703 78.0795V73.9767H165.756V78.0795H164.703ZM165.234 73.4931C165.041 73.4931 164.885 73.4385 164.766 73.3293C164.646 73.2149 164.586 73.0719 164.586 72.9003C164.586 72.7287 164.646 72.5883 164.766 72.4791C164.885 72.3647 165.041 72.3075 165.234 72.3075C165.426 72.3075 165.582 72.3647 165.702 72.4791C165.826 72.5883 165.889 72.7287 165.889 72.9003C165.889 73.0719 165.826 73.2149 165.702 73.3293C165.582 73.4385 165.426 73.4931 165.234 73.4931ZM168.512 78.1731C168.164 78.1731 167.854 78.0847 167.584 77.9079C167.313 77.7259 167.103 77.4763 166.952 77.1591C166.801 76.8419 166.726 76.4779 166.726 76.0671C166.726 75.6407 166.804 75.2637 166.96 74.9361C167.116 74.6085 167.337 74.3511 167.623 74.1639C167.909 73.9767 168.239 73.8831 168.613 73.8831C168.879 73.8831 169.113 73.9325 169.315 74.0313C169.518 74.1301 169.682 74.2731 169.807 74.4603V72.4635H170.86V78.0795H169.924L169.807 77.5335C169.729 77.6479 169.633 77.7545 169.518 77.8533C169.404 77.9521 169.266 78.0301 169.105 78.0873C168.944 78.1445 168.746 78.1731 168.512 78.1731ZM168.816 77.2527C169.024 77.2527 169.204 77.2033 169.354 77.1045C169.505 77.0057 169.622 76.8653 169.705 76.6833C169.794 76.4961 169.838 76.2777 169.838 76.0281C169.838 75.7733 169.794 75.5549 169.705 75.3729C169.622 75.1857 169.505 75.0453 169.354 74.9517C169.204 74.8529 169.024 74.8035 168.816 74.8035C168.619 74.8035 168.442 74.8529 168.286 74.9517C168.135 75.0505 168.015 75.1909 167.927 75.3729C167.839 75.5549 167.794 75.7707 167.794 76.0203C167.794 76.2699 167.839 76.4883 167.927 76.6755C168.015 76.8627 168.135 77.0057 168.286 77.1045C168.442 77.2033 168.619 77.2527 168.816 77.2527ZM173.242 78.1731C172.925 78.1731 172.662 78.1185 172.454 78.0093C172.246 77.8949 172.09 77.7441 171.986 77.5569C171.882 77.3645 171.83 77.1565 171.83 76.9329C171.83 76.6833 171.89 76.4649 172.009 76.2777C172.134 76.0905 172.319 75.9449 172.563 75.8409C172.813 75.7369 173.122 75.6849 173.491 75.6849H174.435C174.435 75.4665 174.417 75.2897 174.381 75.1545C174.344 75.0141 174.271 74.9101 174.162 74.8425C174.058 74.7749 173.905 74.7411 173.702 74.7411C173.515 74.7411 173.361 74.7801 173.242 74.8581C173.122 74.9309 173.047 75.0453 173.016 75.2013H171.994C172.02 74.9309 172.106 74.6995 172.251 74.5071C172.402 74.3095 172.602 74.1561 172.852 74.0469C173.101 73.9377 173.387 73.8831 173.71 73.8831C174.084 73.8831 174.404 73.9455 174.669 74.0703C174.94 74.1899 175.142 74.3693 175.278 74.6085C175.418 74.8425 175.488 75.1285 175.488 75.4665V78.0795H174.607L174.49 77.4711C174.433 77.5751 174.362 77.6713 174.279 77.7597C174.201 77.8429 174.11 77.9157 174.006 77.9781C173.902 78.0405 173.785 78.0873 173.655 78.1185C173.53 78.1549 173.393 78.1731 173.242 78.1731ZM173.491 77.3619C173.611 77.3619 173.723 77.3359 173.827 77.2839C173.931 77.2319 174.022 77.1617 174.1 77.0733C174.183 76.9797 174.248 76.8731 174.295 76.7535C174.347 76.6339 174.381 76.5039 174.396 76.3635V76.3323H173.608C173.452 76.3323 173.325 76.3531 173.226 76.3947C173.127 76.4363 173.055 76.4961 173.008 76.5741C172.966 76.6521 172.945 76.7405 172.945 76.8393C172.945 76.9485 172.966 77.0421 173.008 77.1201C173.055 77.1981 173.12 77.2579 173.203 77.2995C173.286 77.3411 173.382 77.3619 173.491 77.3619ZM178.231 78.1731C177.883 78.1731 177.574 78.0847 177.303 77.9079C177.033 77.7259 176.822 77.4763 176.671 77.1591C176.521 76.8419 176.445 76.4779 176.445 76.0671C176.445 75.6407 176.523 75.2637 176.679 74.9361C176.835 74.6085 177.056 74.3511 177.342 74.1639C177.628 73.9767 177.958 73.8831 178.333 73.8831C178.598 73.8831 178.832 73.9325 179.035 74.0313C179.238 74.1301 179.401 74.2731 179.526 74.4603V72.4635H180.579V78.0795H179.643L179.526 77.5335C179.448 77.6479 179.352 77.7545 179.238 77.8533C179.123 77.9521 178.985 78.0301 178.824 78.0873C178.663 78.1445 178.465 78.1731 178.231 78.1731ZM178.536 77.2527C178.744 77.2527 178.923 77.2033 179.074 77.1045C179.225 77.0057 179.342 76.8653 179.425 76.6833C179.513 76.4961 179.557 76.2777 179.557 76.0281C179.557 75.7733 179.513 75.5549 179.425 75.3729C179.342 75.1857 179.225 75.0453 179.074 74.9517C178.923 74.8529 178.744 74.8035 178.536 74.8035C178.338 74.8035 178.161 74.8529 178.005 74.9517C177.854 75.0505 177.735 75.1909 177.646 75.3729C177.558 75.5549 177.514 75.7707 177.514 76.0203C177.514 76.2699 177.558 76.4883 177.646 76.6755C177.735 76.8627 177.854 77.0057 178.005 77.1045C178.161 77.2033 178.338 77.2527 178.536 77.2527Z" fill="#B19BB9"/>
<defs>
<linearGradient id="paint0_linear_689_873" x1="117.712" y1="57.993" x2="7.9636" y2="167.028" gradientUnits="userSpaceOnUse">
<stop offset="0.108875" stop-color="#070009" stop-opacity="0"/>
<stop offset="1" stop-color="#700796" stop-opacity="0.9"/>
</linearGradient>
<linearGradient id="paint1_linear_689_873" x1="273.713" y1="107.993" x2="163.964" y2="217.028" gradientUnits="userSpaceOnUse">
<stop stop-color="#070009" stop-opacity="0"/>
<stop offset="1" stop-color="#700796" stop-opacity="0.9"/>
</linearGradient>
<linearGradient id="paint2_linear_689_873" x1="208.712" y1="10.9929" x2="98.9635" y2="120.028" gradientUnits="userSpaceOnUse">
<stop offset="0.133224" stop-color="#070009" stop-opacity="0"/>
<stop offset="1" stop-color="#700796" stop-opacity="0.9"/>
</linearGradient>
</defs>
</svg>
