<svg width="106" height="369" viewBox="0 0 106 369" fill="none" xmlns="http://www.w3.org/2000/svg">
<path d="M53 280.5V229L1 203V255L53 280.5Z" fill="#270632" stroke="#45025D" stroke-linejoin="round"/>
<path d="M53 280.5V229L105 203V255L53 280.5Z" fill="url(#paint0_linear_4_231)" stroke="#45025D" stroke-linejoin="round"/>
<path d="M1 203L53 229L105 203L53 177L1 203Z" fill="#270632" stroke="#45025D" stroke-linejoin="round"/>
<path d="M53 368.5V317L1 291V343L53 368.5Z" stroke="#45025D" stroke-linejoin="round"/>
<path d="M53 368.5V317L105 291V343L53 368.5Z" stroke="#45025D" stroke-linejoin="round"/>
<path d="M1 291L53 317L105 291L53 265L1 291Z" stroke="#45025D" stroke-linejoin="round"/>
<path d="M53 104.5V53L1 27V79L53 104.5Z" stroke="#45025D" stroke-linejoin="round"/>
<path d="M53 104.5V53L105 27V79L53 104.5Z" stroke="#45025D" stroke-linejoin="round"/>
<path d="M1 27L53 53L105 27L53 1L1 27Z" stroke="#45025D" stroke-linejoin="round"/>
<path d="M53 192.5V141L1 115V167L53 192.5Z" stroke="#45025D" stroke-linejoin="round"/>
<path d="M53 192.5V141L105 115V167L53 192.5Z" stroke="#45025D" stroke-linejoin="round"/>
<path d="M1 115L53 141L105 115L53 89L1 115Z" stroke="#45025D" stroke-linejoin="round"/>
<defs>
<linearGradient id="paint0_linear_4_231" x1="100.5" y1="210.5" x2="50.5" y2="287" gradientUnits="userSpaceOnUse">
<stop stop-color="#63C7F2"/>
<stop offset="1" stop-color="#700796"/>
</linearGradient>
</defs>
</svg>
