<svg width="367" height="339" viewBox="0 0 367 339" fill="none" xmlns="http://www.w3.org/2000/svg">
<path d="M105 182.5V131L53 105V157L105 182.5Z" stroke="#45025D" stroke-linejoin="round"/>
<path d="M105 182.5V131L157 105V157L105 182.5Z" stroke="#45025D" stroke-linejoin="round"/>
<path d="M53 105L105 131L157 105L105 79L53 105Z" stroke="#45025D" stroke-linejoin="round"/>
<path d="M53 260.5V209L1 183V235L53 260.5Z" stroke="#45025D" stroke-linejoin="round"/>
<path d="M53 260.5V209L105 183V235L53 260.5Z" stroke="#45025D" stroke-linejoin="round"/>
<path d="M1 183L53 209L105 183L53 157L1 183Z" stroke="#45025D" stroke-linejoin="round"/>
<path d="M157 260.5V209L105 183V235L157 260.5Z" fill="#270632" stroke="#45025D" stroke-linejoin="round"/>
<path d="M157 260.5V209L209 183V235L157 260.5Z" fill="url(#paint0_linear_4_236)" stroke="#45025D" stroke-linejoin="round"/>
<path d="M105 183L157 209L209 183L157 157L105 183Z" fill="#270632" stroke="#45025D" stroke-linejoin="round"/>
<path d="M53 104.5V53L1 27V79L53 104.5Z" fill="#45025D" stroke="#45025D" stroke-linejoin="round"/>
<path d="M53 104.5V53L105 27V79L53 104.5Z" fill="#700796" stroke="#700796" stroke-linejoin="round"/>
<path d="M1 27L53 53L105 27L53 1L1 27Z" fill="#270632" stroke="#45025D" stroke-linejoin="round"/>
<path d="M262 260.5V209L210 183V235L262 260.5Z" fill="#270632" stroke="#45025D" stroke-linejoin="round"/>
<path d="M262 260.5V209L314 183V235L262 260.5Z" stroke="#45025D" stroke-linejoin="round"/>
<path d="M210 183L262 209L314 183L262 157L210 183Z" fill="#45025D" stroke="#45025D" stroke-linejoin="round"/>
<path d="M314 338.5V287L262 261V313L314 338.5Z" fill="#270632" stroke="#45025D" stroke-linejoin="round"/>
<path d="M314 338.5V287L366 261V313L314 338.5Z" fill="#45025D" stroke="#45025D" stroke-linejoin="round"/>
<path d="M262 261L314 287L366 261L314 235L262 261Z" stroke="#45025D" stroke-linejoin="round"/>
<path d="M105 338.5V287L53 261V313L105 338.5Z" stroke="#45025D" stroke-linejoin="round"/>
<path d="M105 338.5V287L157 261V313L105 338.5Z" stroke="#45025D" stroke-linejoin="round"/>
<path d="M53 261L105 287L157 261L105 235L53 261Z" stroke="#45025D" stroke-linejoin="round"/>
<defs>
<linearGradient id="paint0_linear_4_236" x1="204.5" y1="190.5" x2="154.5" y2="267" gradientUnits="userSpaceOnUse">
<stop stop-color="#63C7F2"/>
<stop offset="1" stop-color="#700796"/>
</linearGradient>
</defs>
</svg>
