<svg width="31" height="29" viewBox="0 0 31 29" fill="none" xmlns="http://www.w3.org/2000/svg">
<path d="M5.32868 0.544739L3.76982 2.00375L6.08929 4.1767L7.64593 2.71769L5.32868 0.544739ZM25.6724 0.544739L23.353 2.71769L24.9107 4.1767L27.2291 2.00479L25.6724 0.544739ZM15.5 1.19227C15.1346 1.19642 14.7649 1.21613 14.3929 1.25868C14.3818 1.25868 14.3707 1.2566 14.3596 1.25868C9.86907 1.74121 6.29521 5.14176 5.67411 9.332C5.17811 12.7045 6.66168 15.7626 9.13393 17.7322C10.1452 18.5411 10.8292 19.6512 11.0714 20.8764V27.1027H13.5957C13.981 27.7222 14.684 28.1404 15.5 28.1404C16.316 28.1404 17.019 27.7222 17.4043 27.1027H19.9286V22.9518H20.0326V21.7191C20.0326 20.1978 20.8763 18.6641 22.2469 17.4717C24.0804 15.7512 25.4643 13.3074 25.4643 10.5005C25.4643 5.37421 20.9626 1.14453 15.5 1.19227ZM15.5 3.26767C19.7791 3.21163 23.25 6.49492 23.25 10.5005C23.25 12.6734 22.1761 14.5869 20.6892 15.9795L20.7246 16.0127C19.247 17.2898 18.2915 19.0104 18.0232 20.8775H13.1805C12.937 19.0989 12.1232 17.3773 10.5854 16.1424C8.62907 14.5859 7.46325 12.2407 7.85296 9.59247C8.33679 6.3237 11.1666 3.6952 14.6342 3.33512C14.9205 3.29771 15.2088 3.27554 15.4978 3.26871L15.5 3.26767ZM0 10.5005V12.5759H3.32143V10.5005H0ZM27.6786 10.5005V12.5759H31V10.5005H27.6786ZM6.08929 18.8996L3.77093 21.0715L5.32868 22.5316L7.64482 20.3586L6.08929 18.8996ZM24.9107 18.8996L23.3541 20.3586L25.6713 22.5316L27.2291 21.0715L24.9107 18.8996ZM13.2857 22.9529H17.7143V25.0283H13.2857V22.9529Z" fill="#ECE6EE"/>
</svg>
