<svg width="39" height="34" viewBox="0 0 39 34" fill="none" xmlns="http://www.w3.org/2000/svg">
<path d="M3.26689 13.8071H9.66069V30.0074H3.26961C3.09224 30.0078 2.91654 29.9748 2.75257 29.9104C2.58859 29.8461 2.43957 29.7516 2.31402 29.6324C2.18847 29.5131 2.08887 29.3715 2.02091 29.2156C1.95295 29.0597 1.91797 28.8926 1.91797 28.7238V15.0907C1.91797 14.7503 2.06009 14.4238 2.31306 14.1831C2.56603 13.9424 2.90914 13.8071 3.26689 13.8071Z" stroke="#ECE6EE" stroke-width="3" stroke-linecap="round" stroke-linejoin="round"/>
<path d="M9.68735 30.0825L11.6319 31.0064C12.3852 31.3635 13.2147 31.5473 14.0578 31.5447H31.7597C32.5093 31.5438 33.2328 31.2824 33.7942 30.8097C34.3556 30.337 34.7162 29.6854 34.8084 28.9775L36.965 15.73C37.0306 15.3178 37.0036 14.8971 36.8858 14.4956C36.7681 14.0941 36.5623 13.7209 36.2819 13.4006C36.0016 13.0803 35.6531 12.8201 35.2594 12.6373C34.8657 12.4544 34.4358 12.3531 33.9979 12.3399H22.1513V4.86857C22.1476 4.48815 22.0638 4.1123 21.905 3.76318C21.7461 3.41406 21.5154 3.09875 21.2264 2.83584C20.9375 2.57293 20.5961 2.36775 20.2225 2.23239C19.8488 2.09704 19.4505 2.03426 19.051 2.04775C18.5428 2.04267 18.0419 2.16301 17.5972 2.39705C17.1525 2.63109 16.7792 2.97082 16.5136 3.38311L9.66016 13.8072V30.0075" stroke="#ECE6EE" stroke-width="3" stroke-linecap="round" stroke-linejoin="round"/>
</svg>
