<svg width="160" height="62" viewBox="0 0 160 62" fill="none" xmlns="http://www.w3.org/2000/svg">
<path d="M2.08 42V26.128H5.696L6.048 28.272C6.56 27.504 7.232 26.896 8.064 26.448C8.91733 25.9787 9.89867 25.744 11.008 25.744C13.4613 25.744 15.2 26.6933 16.224 28.592C16.8 27.7173 17.568 27.024 18.528 26.512C19.5093 26 20.576 25.744 21.728 25.744C23.7973 25.744 25.3867 26.3627 26.496 27.6C27.6053 28.8373 28.16 30.6507 28.16 33.04V42H24.064V33.424C24.064 32.0587 23.7973 31.0133 23.264 30.288C22.752 29.5627 21.952 29.2 20.864 29.2C19.7547 29.2 18.8587 29.6053 18.176 30.416C17.5147 31.2267 17.184 32.3573 17.184 33.808V42H13.088V33.424C13.088 32.0587 12.8213 31.0133 12.288 30.288C11.7547 29.5627 10.9333 29.2 9.824 29.2C8.736 29.2 7.85067 29.6053 7.168 30.416C6.50667 31.2267 6.176 32.3573 6.176 33.808V42H2.08ZM39.7608 42.384C38.1608 42.384 36.7421 42.0427 35.5048 41.36C34.2674 40.6773 33.2968 39.7173 32.5928 38.48C31.8888 37.2427 31.5368 35.8133 31.5368 34.192C31.5368 32.5493 31.8781 31.088 32.5608 29.808C33.2648 28.528 34.2248 27.536 35.4408 26.832C36.6781 26.1067 38.1288 25.744 39.7928 25.744C41.3501 25.744 42.7261 26.0853 43.9208 26.768C45.1154 27.4507 46.0434 28.3893 46.7048 29.584C47.3874 30.7573 47.7288 32.0693 47.7288 33.52C47.7288 33.7547 47.7181 34 47.6968 34.256C47.6968 34.512 47.6861 34.7787 47.6648 35.056H35.6008C35.6861 36.2933 36.1128 37.264 36.8808 37.968C37.6701 38.672 38.6194 39.024 39.7288 39.024C40.5608 39.024 41.2541 38.8427 41.8088 38.48C42.3848 38.096 42.8114 37.6053 43.0888 37.008H47.2488C46.9501 38.0107 46.4488 38.928 45.7448 39.76C45.0621 40.5707 44.2088 41.2107 43.1848 41.68C42.1821 42.1493 41.0408 42.384 39.7608 42.384ZM39.7928 29.072C38.7901 29.072 37.9048 29.36 37.1368 29.936C36.3688 30.4907 35.8781 31.344 35.6648 32.496H43.5688C43.5048 31.4507 43.1208 30.6187 42.4168 30C41.7128 29.3813 40.8381 29.072 39.7928 29.072ZM51.1738 42V26.128H54.8218L55.2058 29.104C55.7818 28.08 56.5604 27.2693 57.5417 26.672C58.5444 26.0533 59.7178 25.744 61.0618 25.744V30.064H59.9098C59.0138 30.064 58.2138 30.2027 57.5098 30.48C56.8058 30.7573 56.2511 31.2373 55.8458 31.92C55.4618 32.6027 55.2698 33.552 55.2698 34.768V42H51.1738ZM63.8613 42V18.96H67.9573V42H63.8613ZM74.3505 23.664C73.6038 23.664 72.9852 23.44 72.4945 22.992C72.0252 22.544 71.7905 21.9787 71.7905 21.296C71.7905 20.6133 72.0252 20.0587 72.4945 19.632C72.9852 19.184 73.6038 18.96 74.3505 18.96C75.0972 18.96 75.7052 19.184 76.1745 19.632C76.6652 20.0587 76.9105 20.6133 76.9105 21.296C76.9105 21.9787 76.6652 22.544 76.1745 22.992C75.7052 23.44 75.0972 23.664 74.3505 23.664ZM72.3025 42V26.128H76.3985V42H72.3025ZM87.7458 42C86.0818 42 84.7484 41.5947 83.7458 40.784C82.7431 39.9733 82.2418 38.5333 82.2418 36.464V29.552H79.5218V26.128H82.2418L82.7218 21.872H86.3378V26.128H90.6258V29.552H86.3378V36.496C86.3378 37.264 86.4978 37.7973 86.8177 38.096C87.1591 38.3733 87.7351 38.512 88.5458 38.512H90.5298V42H87.7458ZM101.448 42.384C99.8483 42.384 98.4296 42.0427 97.1923 41.36C95.9549 40.6773 94.9843 39.7173 94.2803 38.48C93.5763 37.2427 93.2243 35.8133 93.2243 34.192C93.2243 32.5493 93.5656 31.088 94.2483 29.808C94.9523 28.528 95.9123 27.536 97.1283 26.832C98.3656 26.1067 99.8163 25.744 101.48 25.744C103.038 25.744 104.414 26.0853 105.608 26.768C106.803 27.4507 107.731 28.3893 108.392 29.584C109.075 30.7573 109.416 32.0693 109.416 33.52C109.416 33.7547 109.406 34 109.384 34.256C109.384 34.512 109.374 34.7787 109.352 35.056H97.2883C97.3736 36.2933 97.8003 37.264 98.5683 37.968C99.3576 38.672 100.307 39.024 101.416 39.024C102.248 39.024 102.942 38.8427 103.496 38.48C104.072 38.096 104.499 37.6053 104.776 37.008H108.936C108.638 38.0107 108.136 38.928 107.432 39.76C106.75 40.5707 105.896 41.2107 104.872 41.68C103.87 42.1493 102.728 42.384 101.448 42.384ZM101.48 29.072C100.478 29.072 99.5923 29.36 98.8243 29.936C98.0563 30.4907 97.5656 31.344 97.3523 32.496H105.256C105.192 31.4507 104.808 30.6187 104.104 30C103.4 29.3813 102.526 29.072 101.48 29.072ZM118.333 42.384C116.968 42.384 115.848 42.1707 114.973 41.744C114.099 41.296 113.448 40.7093 113.021 39.984C112.595 39.2587 112.381 38.4587 112.381 37.584C112.381 36.112 112.957 34.9173 114.109 34C115.261 33.0827 116.989 32.624 119.293 32.624H123.325V32.24C123.325 31.152 123.016 30.352 122.397 29.84C121.779 29.328 121.011 29.072 120.093 29.072C119.261 29.072 118.536 29.2747 117.917 29.68C117.299 30.064 116.915 30.64 116.765 31.408H112.765C112.872 30.256 113.256 29.2533 113.917 28.4C114.6 27.5467 115.475 26.896 116.541 26.448C117.608 25.9787 118.803 25.744 120.125 25.744C122.387 25.744 124.168 26.3093 125.469 27.44C126.771 28.5707 127.421 30.1707 127.421 32.24V42H123.933L123.549 39.44C123.08 40.2933 122.419 40.9973 121.565 41.552C120.733 42.1067 119.656 42.384 118.333 42.384ZM119.261 39.184C120.435 39.184 121.341 38.8 121.981 38.032C122.643 37.264 123.059 36.3147 123.229 35.184H119.741C118.653 35.184 117.875 35.3867 117.405 35.792C116.936 36.176 116.701 36.656 116.701 37.232C116.701 37.8507 116.936 38.3307 117.405 38.672C117.875 39.0133 118.493 39.184 119.261 39.184ZM131.33 42V26.128H134.946L135.298 28.272C135.81 27.504 136.482 26.896 137.314 26.448C138.167 25.9787 139.149 25.744 140.258 25.744C142.711 25.744 144.45 26.6933 145.474 28.592C146.05 27.7173 146.818 27.024 147.778 26.512C148.759 26 149.826 25.744 150.978 25.744C153.047 25.744 154.637 26.3627 155.746 27.6C156.855 28.8373 157.41 30.6507 157.41 33.04V42H153.314V33.424C153.314 32.0587 153.047 31.0133 152.514 30.288C152.002 29.5627 151.202 29.2 150.114 29.2C149.005 29.2 148.109 29.6053 147.426 30.416C146.765 31.2267 146.434 32.3573 146.434 33.808V42H142.338V33.424C142.338 32.0587 142.071 31.0133 141.538 30.288C141.005 29.5627 140.183 29.2 139.074 29.2C137.986 29.2 137.101 29.6053 136.418 30.416C135.757 31.2267 135.426 32.3573 135.426 33.808V42H131.33Z" fill="#ECE6EE"/>
</svg>
