<svg width="66" height="67" viewBox="0 0 66 67" fill="none" xmlns="http://www.w3.org/2000/svg">
<g clip-path="url(#clip0_16_1791)">
<path d="M1.40812 33.099C1.40658 38.7283 2.86683 44.2249 5.64347 49.0697L1.14258 65.6229L17.9602 61.1811C22.6118 63.7318 27.8234 65.0683 33.1196 65.0687H33.1335C50.6171 65.0687 64.8491 50.7382 64.8566 33.1242C64.8599 24.589 61.563 16.563 55.573 10.5247C49.584 4.48693 41.6189 1.16004 33.1322 1.15614C15.6466 1.15614 1.4156 15.4858 1.40838 33.099" fill="url(#paint0_linear_16_1791)"/>
<path d="M0.275859 33.0887C0.274055 38.9205 1.78664 44.6137 4.66228 49.6319L0 66.7785L17.4206 62.1776C22.2206 64.8137 27.6249 66.2035 33.124 66.2056H33.1382C51.249 66.2056 65.9923 51.3597 66 33.1151C66.0031 24.2732 62.5876 15.9587 56.3836 9.70409C50.1788 3.45024 41.9288 0.00363566 33.1382 0C15.0243 0 0.283078 14.8439 0.275859 33.0887ZM10.6505 48.7677L10 47.7276C7.26567 43.3482 5.82244 38.2874 5.8245 33.0907C5.83017 17.9261 18.0825 5.58853 33.1485 5.58853C40.4446 5.59164 47.3014 8.45654 52.4587 13.6545C57.6157 18.853 60.4534 25.7633 60.4516 33.1131C60.4449 48.2777 48.1924 60.6168 33.1382 60.6168H33.1274C28.2256 60.6142 23.4181 59.2882 19.2256 56.7825L18.2279 56.1865L7.89009 58.9166L10.6505 48.7677Z" fill="url(#paint1_linear_16_1791)"/>
<path d="M24.925 19.2555C24.3099 17.8784 23.6625 17.8506 23.0776 17.8264C22.5985 17.8056 22.0509 17.8072 21.5039 17.8072C20.9563 17.8072 20.0666 18.0147 19.3145 18.8418C18.5617 19.6697 16.4404 21.6703 16.4404 25.7394C16.4404 29.8085 19.3828 33.7413 19.793 34.2936C20.2037 34.8449 25.4734 43.4625 33.8193 46.7777C40.7555 49.5327 42.167 48.9848 43.6724 48.8466C45.178 48.709 48.5306 46.8465 49.2146 44.9152C49.8991 42.9841 49.8991 41.3289 49.6939 40.983C49.4886 40.6384 48.941 40.4314 48.1199 40.018C47.2988 39.6045 43.2617 37.6034 42.5091 37.3273C41.7563 37.0515 41.209 36.9139 40.6614 37.742C40.1138 38.5689 38.5414 40.4314 38.0621 40.983C37.5834 41.5358 37.1041 41.6047 36.2832 41.191C35.4616 40.776 32.8172 39.9037 29.6799 37.0863C27.2389 34.894 25.591 32.1868 25.112 31.3586C24.6329 30.5317 25.0606 30.0835 25.4724 29.6714C25.8413 29.3008 26.2938 28.7056 26.7047 28.2228C27.1141 27.7398 27.2508 27.3952 27.5246 26.8436C27.7986 26.2915 27.6615 25.8085 27.4565 25.3948C27.2508 24.9811 25.6552 20.8908 24.925 19.2555Z" fill="white"/>
</g>
<defs>
<linearGradient id="paint0_linear_16_1791" x1="3186.84" y1="6447.83" x2="3186.84" y2="1.15614" gradientUnits="userSpaceOnUse">
<stop stop-color="#1FAF38"/>
<stop offset="1" stop-color="#60D669"/>
</linearGradient>
<linearGradient id="paint1_linear_16_1791" x1="3300" y1="6677.85" x2="3300" y2="0" gradientUnits="userSpaceOnUse">
<stop stop-color="#F9F9F9"/>
<stop offset="1" stop-color="white"/>
</linearGradient>
<clipPath id="clip0_16_1791">
<rect width="66" height="67" fill="white"/>
</clipPath>
</defs>
</svg>
